<?xml version="1.0" standalone="no"?>
<!DOCTYPE svg PUBLIC "-//W3C//DTD SVG 20010904//EN"
 "http://www.w3.org/TR/2001/REC-SVG-20010904/DTD/svg10.dtd">
<svg version="1.0" xmlns="http://www.w3.org/2000/svg"
 width="180.000000pt" height="94.000000pt" viewBox="0 0 180.000000 94.000000"
 preserveAspectRatio="xMidYMid meet">

<g transform="translate(0.000000,94.000000) scale(0.100000,-0.100000)"
fill="#000000" stroke="none">
<path d="M110 622 c-48 -24 -66 -62 -84 -172 -9 -52 -18 -107 -21 -122 -4 -28
-4 -28 50 -28 l54 0 6 55 7 55 134 0 c121 0 134 2 134 18 0 9 3 27 6 40 l6 22
-132 0 c-130 0 -131 0 -128 22 5 38 43 48 179 48 l127 0 6 31 c3 17 6 35 6 40
0 5 -71 9 -157 9 -131 0 -164 -3 -193 -18z"/>
<path d="M471 498 c-12 -79 -25 -155 -28 -170 l-5 -28 156 0 c232 0 250 12
280 193 10 56 20 112 23 125 5 21 2 22 -50 22 l-54 0 -17 -111 c-10 -61 -20
-117 -23 -125 -4 -11 -27 -14 -100 -14 l-95 0 6 43 c4 23 13 79 20 125 l13 82
-51 0 -52 0 -23 -142z"/>
<path d="M925 628 c-4 -12 -55 -309 -55 -322 0 -4 95 -5 211 -4 l212 3 19 26
c11 14 22 44 25 67 4 33 2 43 -15 53 -20 13 -20 13 4 42 31 37 33 96 3 123
-19 17 -41 19 -210 22 -150 3 -190 1 -194 -10z m315 -97 c0 -10 -7 -22 -16
-25 -25 -10 -214 -7 -214 3 0 37 11 41 121 41 100 0 109 -2 109 -19z m-15
-126 c0 -19 -8 -20 -117 -23 -110 -2 -118 -1 -118 16 0 10 3 22 7 26 4 3 57 5
117 4 103 -3 111 -4 111 -23z"/>
<path d="M1371 493 c-12 -82 -25 -158 -28 -170 l-5 -23 158 0 c235 0 251 12
284 206 11 67 20 124 20 128 0 4 -23 6 -52 4 l-52 -3 -19 -109 c-10 -61 -23
-116 -29 -123 -7 -9 -39 -13 -100 -13 l-89 0 5 33 c3 17 10 61 16 97 6 36 13
77 16 93 6 27 5 27 -48 27 l-54 0 -23 -147z"/>
</g>
</svg>
