<svg xmlns="http://www.w3.org/2000/svg" version="1.0" width="960.000000pt" height="439.000000pt" viewBox="0 0 960.000000 439.000000" preserveAspectRatio="xMidYMid meet">

<g transform="translate(0.000000,439.000000) scale(0.100000,-0.100000)" fill="#ffffff" stroke="none">
<path d="M5070 3384 c-545 -47 -917 -98 -1325 -179 -960 -191 -1526 -382 -1893 -639 l-73 -51 5 -41 c3 -23 13 -60 21 -82 l16 -40 77 55 c179 128 396 233 692 334 144 50 441 139 461 139 6 0 -44 -57 -112 -127 -129 -135 -387 -432 -584 -673 -65 -80 -121 -148 -124 -152 -19 -21 -571 -57 -1003 -65 l-348 -6 7 -41 c3 -23 14 -58 25 -78 l18 -38 116 0 c167 0 672 19 866 33 93 7 168 11 168 9 0 -2 -110 -139 -245 -304 -240 -295 -245 -301 -239 -337 9 -49 35 -112 44 -109 10 4 263 308 473 571 98 122 167 199 180 202 12 2 108 13 212 25 482 53 1072 143 1450 220 107 22 198 40 202 40 5 0 8 -28 8 -61 0 -56 3 -63 28 -83 67 -50 298 -7 745 139 193 63 224 71 228 57 30 -98 59 -117 162 -109 68 6 195 33 245 52 13 6 16 3 11 -9 -3 -9 -48 -36 -100 -61 -102 -49 -124 -74 -124 -140 0 -58 35 -85 108 -85 187 0 532 100 792 230 82 41 106 48 180 54 100 9 325 45 499 81 68 14 127 25 132 25 4 0 -1 -19 -11 -42 -11 -24 -20 -62 -20 -85 0 -47 18 -66 75 -77 35 -7 167 14 309 50 81 20 538 160 591 180 10 4 16 -5 20 -30 9 -44 46 -82 89 -90 44 -8 170 10 275 40 74 22 289 99 297 107 4 4 24 130 21 134 -2 1 -100 -30 -218 -69 -186 -61 -386 -114 -396 -104 -2 2 2 23 8 48 15 56 7 91 -26 106 -31 14 -31 14 -255 -53 -96 -29 -260 -76 -365 -104 -104 -29 -196 -54 -203 -56 -30 -10 3 16 102 81 89 58 106 73 106 95 0 28 -18 89 -30 102 -4 5 -65 -8 -136 -27 -198 -56 -678 -156 -744 -156 -5 0 -12 17 -15 38 -10 56 -25 91 -49 107 -28 20 -213 20 -371 0 -66 -8 -126 -15 -133 -15 -8 0 120 138 285 306 209 214 299 313 301 331 4 29 -26 116 -38 111 -5 -2 -191 -190 -413 -419 l-406 -416 -129 -42 c-143 -46 -314 -91 -344 -91 -15 0 -18 4 -13 18 14 34 17 90 6 110 -23 42 -66 38 -283 -27 -273 -81 -569 -164 -573 -159 -2 2 46 37 106 78 120 81 121 82 93 164 -12 36 -20 46 -32 41 -9 -3 -133 -35 -277 -70 -536 -132 -1102 -233 -1658 -296 -104 -11 -191 -19 -193 -17 -5 6 201 251 381 453 78 88 232 251 341 362 l199 203 165 35 c816 171 1743 272 2187 236 182 -14 225 -30 202 -72 -17 -33 -4 -114 24 -153 13 -17 16 -17 52 15 112 99 94 242 -39 311 -84 43 -153 50 -496 53 -179 1 -345 1 -370 -1z m1305 -1190 c-50 -30 -50 -31 -214 -49 -112 -13 -288 -44 -401 -71 -22 -5 -21 -2 15 33 40 39 40 39 210 66 181 30 299 44 380 45 l50 1 -40 -25z m-390 -196 c-106 -35 -327 -98 -347 -98 -5 0 -8 4 -8 10 0 11 88 38 295 90 192 49 211 48 60 -2z" fill="#ffffff"/>
</g>
</svg>